<svg height="512pt" viewBox="0 0 512 512" width="512pt" xmlns="http://www.w3.org/2000/svg"><g fill-rule="evenodd"><path d="M82.992 293.61l31.555-30.41a9.993 9.993 0 0 0 0-14.4l-31.555-30.41c14.594-67.316 68.082-120.8 135.403-135.394l30.406 31.555a9.998 9.998 0 0 0 7.199 3.058 9.99 9.99 0 0 0 7.2-3.058l30.405-31.555c20.672 4.465 40.184 12.55 58.075 24.07 4.644 2.993 10.832 1.649 13.824-2.992 2.988-4.644 1.648-10.832-2.996-13.82-21.59-13.906-45.309-23.317-70.488-27.969a9.985 9.985 0 0 0-9.016 2.895L256 93.2l-27.004-28.02a9.988 9.988 0 0 0-9.016-2.895c-39.218 7.25-74.933 26.063-103.285 54.41-28.347 28.348-47.164 64.063-54.414 103.278a10 10 0 0 0 2.895 9.02L93.199 256l-28.027 27.008a10.013 10.013 0 0 0-2.895 9.02c4.602 24.886 13.856 48.355 27.5 69.75a9.984 9.984 0 0 0 8.438 4.624c1.84 0 3.703-.507 5.367-1.57 4.656-2.969 6.023-9.148 3.055-13.809-11.293-17.714-19.235-37.003-23.645-57.414zm0 0M446.824 283.008L418.801 256l28.023-27.008a10.003 10.003 0 0 0 2.895-9.02c-4.653-25.171-14.063-48.886-27.973-70.484-2.988-4.644-9.176-5.984-13.82-2.996-4.64 2.992-5.985 9.18-2.992 13.824 11.523 17.899 19.609 37.41 24.074 58.07l-31.559 30.415a9.99 9.99 0 0 0-3.058 7.199 9.99 9.99 0 0 0 3.058 7.2l31.555 30.41c-14.594 67.316-68.082 120.8-135.399 135.394L263.2 397.449a9.996 9.996 0 0 0-7.199-3.058 9.998 9.998 0 0 0-7.203 3.058l-30.406 31.555c-20.926-4.52-40.664-12.75-58.735-24.496-4.629-3.012-10.824-1.7-13.836 2.933-3.008 4.63-1.695 10.825 2.938 13.832 21.785 14.165 45.75 23.735 71.219 28.442a9.994 9.994 0 0 0 9.02-2.895l27-28.02L283 446.82a9.989 9.989 0 0 0 9.02 2.895c39.218-7.246 74.933-26.063 103.28-54.41 28.348-28.348 47.169-64.063 54.419-103.278.61-3.3-.477-6.691-2.895-9.02zm0 0"/><path d="M255.996 0C114.84 0 0 114.84 0 256s114.84 256 256 256c141.156 0 256-114.84 256-256S397.156 0 255.996 0zm0 492C125.867 492 20 386.133 20 256S125.867 20 255.996 20c130.133 0 236 105.867 236 236s-105.867 236-236 236zm0 0"/><path d="M342.09 156.563l-122.137 58.71c-.117.059-.226.13-.34.192-.18.094-.36.187-.535.297a8.283 8.283 0 0 0-.492.328 8.777 8.777 0 0 0-.477.347c-.16.125-.308.258-.46.391a8.792 8.792 0 0 0-.836.836c-.13.145-.254.29-.375.441-.125.16-.243.325-.36.493-.11.16-.215.312-.316.48-.11.176-.207.36-.305.547-.059.11-.129.215-.184.332L156.56 342.094a9.998 9.998 0 0 0 1.945 11.402 9.995 9.995 0 0 0 11.402 1.942l122.14-58.711c.118-.055.224-.13.337-.188.183-.098.36-.191.535-.297.168-.105.332-.219.492-.328.164-.113.324-.226.48-.348.157-.125.305-.257.458-.39a8.16 8.16 0 0 0 .425-.399c.145-.14.278-.289.41-.437a8.356 8.356 0 0 0 .731-.934 7.33 7.33 0 0 0 .32-.48c.11-.18.207-.36.305-.543.059-.113.129-.223.188-.336l58.71-122.137a9.997 9.997 0 0 0-1.945-11.402 9.99 9.99 0 0 0-11.402-1.946zm-114.902 84.769l21.738 21.738 21.742 21.739-83.73 40.25zm57.62 29.336l-43.48-43.477 83.73-40.25zm0 0M123.18 377.645c-5.508 0-10 4.492-10 10 0 5.507 4.492 10 10 10 5.507 0 10-4.493 10-10 0-5.508-4.493-10-10-10zm0 0M388.23 133.766c5.508 0 10-4.493 10-10s-4.492-10-10-10c-5.507 0-10 4.492-10 10s4.493 10 10 10zm0 0"/></g></svg>