<svg aria-hidden="true" style="position: absolute; width: 0; height: 0; overflow: hidden;" version="1.1" xmlns="http://www.w3.org/2000/svg" xmlns:xlink="http://www.w3.org/1999/xlink">
<defs>
<symbol id="enter" viewBox="0 0 32 32">
<title>enter</title>
<path d="M21.217 17.043h-20.174c-0.576 0-1.043-0.467-1.043-1.043s0.467-1.043 1.043-1.043h20.174c0.576 0 1.043 0.467 1.043 1.043s-0.467 1.043-1.043 1.043z"></path>
<path d="M15.652 22.609c-0.267 0-0.534-0.101-0.738-0.306-0.408-0.408-0.408-1.068 0-1.476l4.828-4.828-4.828-4.828c-0.408-0.408-0.408-1.069 0-1.476s1.069-0.408 1.476 0l5.565 5.565c0.408 0.408 0.408 1.068 0 1.476l-5.565 5.565c-0.188 0.19-0.448 0.308-0.736 0.308-0.001 0-0.002 0-0.002 0h0z"></path>
<path d="M16.696 31.304c-6.332 0-11.922-3.809-14.244-9.706-0.211-0.534 0.053-1.141 0.588-1.352 0.534-0.209 1.142 0.052 1.354 0.59 2.005 5.091 6.834 8.381 12.302 8.381 7.288 0 13.217-5.93 13.217-13.217s-5.93-13.217-13.217-13.217c-5.468 0-10.297 3.29-12.302 8.381-0.213 0.539-0.82 0.799-1.354 0.59-0.536-0.211-0.8-0.818-0.588-1.352 2.322-5.897 7.912-9.706 14.244-9.706 8.438 0 15.304 6.866 15.304 15.304s-6.866 15.304-15.304 15.304z"></path>
</symbol>
<symbol id="cart" viewBox="0 0 32 32">
<title>cart</title>
<path d="M9.606 21.070h17.632c1.999 0 3.63-1.631 3.63-3.63v-7.497c0-0.013 0-0.026-0.007-0.039 0-0.013-0.007-0.033-0.007-0.046s-0.007-0.026-0.007-0.039c-0.007-0.013-0.007-0.026-0.013-0.046-0.007-0.013-0.007-0.026-0.013-0.039s-0.007-0.026-0.013-0.039c-0.007-0.013-0.013-0.026-0.020-0.046-0.007-0.013-0.013-0.026-0.020-0.033l-0.020-0.039c-0.007-0.013-0.013-0.020-0.020-0.033s-0.020-0.026-0.026-0.039c-0.007-0.013-0.013-0.020-0.026-0.033-0.007-0.013-0.020-0.020-0.026-0.033s-0.020-0.020-0.026-0.033-0.020-0.020-0.026-0.026l-0.033-0.033c-0.013-0.007-0.020-0.020-0.033-0.026s-0.026-0.020-0.039-0.026c-0.013-0.007-0.020-0.013-0.033-0.020s-0.026-0.013-0.039-0.026l-0.118-0.059c-0.013-0.007-0.026-0.007-0.039-0.013s-0.033-0.013-0.046-0.013-0.026-0.007-0.033-0.007c-0.020-0.007-0.033-0.007-0.053-0.007-0.007 0-0.013-0.007-0.026-0.007l-22.348-3.084v-3.117c0-0.033 0-0.066-0.007-0.092 0-0.007 0-0.013-0.007-0.026 0-0.020-0.007-0.039-0.007-0.059-0.007-0.020-0.007-0.033-0.013-0.053 0-0.013-0.007-0.020-0.007-0.033l-0.020-0.059c0-0.007-0.007-0.020-0.007-0.026-0.007-0.020-0.013-0.033-0.026-0.053-0.007-0.007-0.007-0.020-0.013-0.026-0.007-0.013-0.013-0.026-0.026-0.039-0.007-0.013-0.013-0.020-0.020-0.033s-0.013-0.020-0.020-0.033-0.020-0.026-0.026-0.039l-0.079-0.079c-0.013-0.013-0.026-0.026-0.046-0.039-0.007-0.007-0.020-0.013-0.026-0.020-0.013-0.013-0.026-0.020-0.039-0.033-0.020-0.013-0.039-0.026-0.053-0.033-0.007-0.007-0.013-0.007-0.020-0.013-0.026-0.013-0.059-0.026-0.085-0.039l-4.847-2.039c-0.454-0.191-0.973 0.020-1.164 0.474s0.020 0.973 0.474 1.164l4.301 1.815v19.454c0 1.841 1.381 3.367 3.163 3.597-0.322 0.539-0.513 1.171-0.513 1.841 0 1.98 1.611 3.584 3.584 3.584s3.584-1.611 3.584-3.584c0-0.658-0.178-1.282-0.493-1.809h7.984c-0.316 0.533-0.493 1.151-0.493 1.809 0 1.98 1.611 3.584 3.584 3.584s3.584-1.611 3.584-3.584-1.611-3.584-3.584-3.584h-16.77c-1.026 0-1.855-0.835-1.855-1.855v-2.407c0.539 0.316 1.177 0.5 1.855 0.5zM14.026 28.409c0 1-0.816 1.809-1.809 1.809s-1.809-0.816-1.809-1.809 0.816-1.809 1.809-1.809 1.809 0.809 1.809 1.809zM28.192 28.409c0 1-0.816 1.809-1.809 1.809s-1.809-0.816-1.809-1.809 0.816-1.809 1.809-1.809 1.809 0.809 1.809 1.809zM27.238 19.294h-17.632c-1.026 0-1.855-0.835-1.855-1.855v-9.595l21.341 2.94v6.649c0 1.033-0.835 1.861-1.855 1.861z"></path>
</symbol>
<symbol id="clock" viewBox="0 0 32 32">
<title>clock</title>
<path d="M27.312 4.688c-0.464-0.464-1.22-0.464-1.691 0l-3.64 3.64c-0.464 0.464-0.464 1.22 0 1.691 0.464 0.464 1.22 0.464 1.691 0l2.765-2.765c4.482 5.338 4.217 13.341-0.809 18.367-5.305 5.305-13.938 5.305-19.242 0s-5.305-13.938 0-19.242c3.262-3.262 7.91-4.642 12.426-3.693 0.63 0.133 1.266-0.279 1.399-0.928 0.133-0.643-0.279-1.28-0.922-1.412-5.311-1.114-10.775 0.511-14.608 4.343-3.017 3.024-4.681 7.042-4.681 11.312s1.664 8.288 4.688 11.312c3.024 3.024 7.035 4.688 11.312 4.688s8.288-1.664 11.312-4.688c3.024-3.024 4.688-7.035 4.688-11.312s-1.664-8.288-4.688-11.312z"></path>
<path d="M15.993 4.867c-0.656 0-1.194 0.537-1.194 1.194v9.442l-4.761 4.761c-0.464 0.464-0.464 1.22 0 1.691 0.232 0.232 0.537 0.351 0.842 0.351s0.61-0.119 0.842-0.351l5.112-5.112c0.027-0.027 0.053-0.060 0.080-0.086 0.013-0.013 0.020-0.027 0.027-0.040 0.013-0.020 0.027-0.033 0.040-0.053 0.013-0.013 0.020-0.033 0.033-0.053 0.007-0.013 0.020-0.033 0.027-0.053s0.020-0.033 0.027-0.053c0.007-0.020 0.020-0.033 0.027-0.053s0.013-0.033 0.020-0.053l0.020-0.060c0.007-0.020 0.007-0.033 0.013-0.053s0.013-0.040 0.013-0.060c0.007-0.020 0.007-0.040 0.007-0.066 0-0.020 0.007-0.033 0.007-0.053 0.007-0.040 0.007-0.080 0.007-0.119v-9.926c0.007-0.656-0.53-1.194-1.187-1.194z"></path>
</symbol>
<symbol id="compass" viewBox="0 0 32 32">
<title>compass</title>
<path d="M5.187 18.351l1.972-1.901c0.118-0.114 0.191-0.273 0.191-0.45s-0.073-0.336-0.191-0.45l-0-0-1.972-1.901c0.912-4.207 4.255-7.55 8.463-8.462l1.9 1.972c0.114 0.118 0.273 0.191 0.45 0.191 0 0 0 0 0 0v0c0 0 0 0 0 0 0.176 0 0.336-0.073 0.449-0.191l0-0 1.9-1.972c1.292 0.279 2.511 0.784 3.63 1.504 0.29 0.187 0.677 0.103 0.864-0.187s0.103-0.677-0.187-0.864c-1.349-0.869-2.832-1.457-4.405-1.748-0.034-0.007-0.074-0.010-0.114-0.010-0.177 0-0.336 0.073-0.45 0.191l-0 0-1.688 1.751-1.688-1.751c-0.114-0.118-0.273-0.191-0.45-0.191-0.040 0-0.080 0.004-0.118 0.011l0.004-0.001c-2.451 0.453-4.683 1.629-6.455 3.401s-2.948 4.004-3.401 6.455c-0.007 0.034-0.010 0.073-0.010 0.114 0 0.177 0.073 0.336 0.191 0.45l0 0 1.751 1.688-1.752 1.688c-0.118 0.114-0.191 0.274-0.191 0.45 0 0.040 0.004 0.079 0.011 0.117l-0.001-0.004c0.288 1.555 0.866 3.022 1.719 4.359 0.113 0.175 0.306 0.289 0.526 0.289 0 0 0.001 0 0.001 0h-0c0.115 0 0.231-0.032 0.335-0.098 0.291-0.186 0.376-0.572 0.191-0.863-0.706-1.107-1.202-2.313-1.478-3.588zM27.927 17.688l-1.751-1.688 1.751-1.688c0.118-0.114 0.191-0.273 0.191-0.45 0-0.040-0.004-0.079-0.011-0.117l0.001 0.004c-0.291-1.573-0.879-3.055-1.748-4.405-0.187-0.29-0.573-0.374-0.864-0.187s-0.374 0.574-0.187 0.864c0.72 1.119 1.226 2.338 1.505 3.629l-1.972 1.901c-0.118 0.114-0.191 0.273-0.191 0.45 0 0 0 0 0 0v-0c0 0 0 0 0 0 0 0.176 0.073 0.336 0.191 0.449l0 0 1.972 1.901c-0.912 4.207-4.255 7.55-8.462 8.462l-1.9-1.972c-0.114-0.118-0.273-0.191-0.45-0.191-0 0-0 0-0 0v0c-0 0-0 0-0 0-0.177 0-0.336 0.073-0.45 0.191l-0 0-1.9 1.972c-1.308-0.282-2.541-0.797-3.671-1.531-0.289-0.188-0.677-0.106-0.865 0.183s-0.106 0.677 0.184 0.864c1.362 0.885 2.859 1.483 4.451 1.778 0.034 0.007 0.074 0.010 0.114 0.010 0.177 0 0.336-0.073 0.45-0.191l0-0 1.688-1.751 1.688 1.751c0.114 0.118 0.273 0.191 0.45 0.191 0.040 0 0.080-0.004 0.118-0.011l-0.004 0.001c2.451-0.453 4.683-1.629 6.455-3.401s2.948-4.004 3.401-6.455c0.038-0.206-0.030-0.418-0.181-0.564z"></path>
<path d="M16 0c-8.822 0-16 7.178-16 16s7.178 16 16 16c8.822 0 16-7.178 16-16s-7.178-16-16-16zM16 30.75c-8.133 0-14.75-6.617-14.75-14.75s6.617-14.75 14.75-14.75c8.133 0 14.75 6.617 14.75 14.75s-6.617 14.75-14.75 14.75z"></path>
<path d="M21.381 9.785l-7.634 3.669c-0.007 0.004-0.014 0.008-0.021 0.012-0.011 0.006-0.023 0.012-0.033 0.019-0.012 0.008-0.022 0.014-0.032 0.022l0.002-0.001c-0.012 0.008-0.022 0.015-0.031 0.023l0.001-0.001c-0.010 0.008-0.019 0.016-0.029 0.024-0.019 0.016-0.036 0.034-0.052 0.052l-0.001 0.001c-0.008 0.009-0.016 0.018-0.023 0.028s-0.015 0.020-0.023 0.031c-0.007 0.010-0.013 0.020-0.020 0.030s-0.013 0.023-0.019 0.034c-0.004 0.007-0.008 0.013-0.011 0.021l-3.67 7.634c-0.039 0.079-0.062 0.172-0.062 0.271 0 0.173 0.070 0.329 0.183 0.442v0c0.113 0.113 0.269 0.183 0.442 0.183 0.098 0 0.192-0.023 0.274-0.063l-0.004 0.002 7.634-3.669c0.007-0.003 0.014-0.008 0.021-0.012 0.011-0.006 0.023-0.012 0.033-0.019s0.021-0.014 0.031-0.020c0.010-0.007 0.020-0.014 0.030-0.022s0.019-0.016 0.029-0.024c0.009-0.008 0.018-0.016 0.027-0.025l0-0c0.009-0.009 0.017-0.018 0.026-0.027 0.016-0.017 0.031-0.037 0.045-0.057l0.001-0.002c0.006-0.008 0.013-0.018 0.019-0.028l0.001-0.002c0.007-0.011 0.013-0.023 0.019-0.034 0.004-0.007 0.008-0.014 0.012-0.021l3.669-7.634c0.039-0.079 0.062-0.172 0.062-0.271 0-0.173-0.070-0.329-0.183-0.442v0c-0.113-0.113-0.269-0.183-0.442-0.183-0.098 0-0.192 0.023-0.274 0.063l0.004-0.002zM14.199 15.083l2.718 2.717-5.233 2.516zM17.8 16.917l-2.717-2.717 5.233-2.516zM7.699 23.603c-0.344 0-0.625 0.281-0.625 0.625s0.281 0.625 0.625 0.625c0.344 0 0.625-0.281 0.625-0.625s-0.281-0.625-0.625-0.625zM24.264 8.36c0.344 0 0.625-0.281 0.625-0.625s-0.281-0.625-0.625-0.625c-0.344 0-0.625 0.281-0.625 0.625s0.281 0.625 0.625 0.625z"></path>
</symbol>
<symbol id="like" viewBox="0 0 32 32">
<title>like</title>
<path d="M29.415 4.545c-1.676-1.676-3.894-2.591-6.262-2.591s-4.593 0.923-6.268 2.598l-0.875 0.875-0.889-0.889c-1.676-1.676-3.908-2.605-6.275-2.605-2.361 0-4.586 0.923-6.255 2.591-1.676 1.676-2.598 3.901-2.591 6.268 0 2.368 0.929 4.586 2.605 6.262l12.74 12.74c0.176 0.176 0.414 0.271 0.644 0.271s0.468-0.088 0.644-0.265l12.767-12.72c1.676-1.676 2.598-3.901 2.598-6.268 0.007-2.368-0.909-4.593-2.585-6.268zM28.113 15.786l-12.123 12.075-12.096-12.096c-1.33-1.33-2.062-3.094-2.062-4.973s0.726-3.643 2.056-4.966c1.323-1.323 3.087-2.056 4.959-2.056 1.879 0 3.65 0.733 4.979 2.062l1.533 1.533c0.36 0.36 0.936 0.36 1.296 0l1.52-1.52c1.33-1.33 3.1-2.062 4.973-2.062s3.636 0.733 4.966 2.056c1.33 1.33 2.056 3.094 2.056 4.973 0.007 1.879-0.726 3.643-2.056 4.973z"></path>
</symbol>
<symbol id="mail" viewBox="0 0 32 32">
<title>mail</title>
<path d="M28.094 3.824h-24.18c-2.159 0-3.913 1.755-3.913 3.913v16.526c0 2.159 1.755 3.913 3.913 3.913h24.174c2.159 0 3.913-1.755 3.913-3.913v-16.52c0.007-2.159-1.748-3.92-3.906-3.92zM30.219 24.263c0 1.172-0.953 2.125-2.125 2.125h-24.18c-1.172 0-2.125-0.953-2.125-2.125v-16.52c0-1.172 0.953-2.125 2.125-2.125h24.174c1.172 0 2.125 0.953 2.125 2.125v16.52h0.007z"></path>
<path d="M20.181 15.795l7.826-7.018c0.364-0.331 0.397-0.894 0.066-1.265-0.331-0.364-0.894-0.397-1.265-0.066l-10.792 9.687-2.106-1.88c-0.007-0.007-0.013-0.013-0.013-0.020-0.046-0.046-0.093-0.086-0.146-0.126l-8.568-7.667c-0.371-0.331-0.934-0.298-1.265 0.073s-0.298 0.934 0.073 1.265l7.919 7.078-7.886 7.383c-0.358 0.338-0.377 0.9-0.040 1.265 0.179 0.185 0.417 0.285 0.656 0.285 0.218 0 0.437-0.079 0.609-0.238l8.005-7.489 2.172 1.94c0.172 0.152 0.384 0.225 0.596 0.225s0.43-0.079 0.596-0.232l2.231-2 7.959 7.561c0.172 0.166 0.397 0.245 0.616 0.245 0.238 0 0.47-0.093 0.649-0.278 0.338-0.358 0.324-0.927-0.033-1.265l-7.859-7.462z"></path>
</symbol>
<symbol id="safe" viewBox="0 0 32 32">
<title>safe</title>
<path d="M3.822 28.747v1.12c0 1.178 0.955 2.133 2.133 2.133v0h5.244c1.178 0 2.133-0.955 2.133-2.133v0-1.067h5.333v1.067c0 1.178 0.955 2.133 2.133 2.133v0h5.244c1.178 0 2.133-0.955 2.133-2.133v0-1.111c1.267-0.22 2.219-1.309 2.222-2.621v-23.467c-0.002-1.472-1.195-2.665-2.666-2.667h-23.376c-1.472 0.002-2.665 1.195-2.667 2.667v2.134c0 0.295 0.239 0.533 0.533 0.533s0.533-0.239 0.533-0.533v0-2.133c0-0.884 0.716-1.6 1.6-1.6v0h23.376c0.884 0 1.6 0.716 1.6 1.6v0 23.467c0 0.884-0.716 1.6-1.6 1.6v0h-23.376c-0.884 0-1.6-0.716-1.6-1.6v0-18.667c0-0.295-0.239-0.533-0.533-0.533s-0.533 0.239-0.533 0.533v0 18.667c0.002 1.283 0.907 2.354 2.114 2.61l0.017 0.003zM27.111 28.8v1.067c0 0.589-0.478 1.067-1.067 1.067v0h-5.244c-0.589 0-1.067-0.478-1.067-1.067v0-1.067zM12.267 28.8v1.067c0 0.589-0.478 1.067-1.067 1.067v0h-5.244c-0.589 0-1.067-0.478-1.067-1.067v0-1.067z"></path>
<path d="M5.867 18.133c-0.295 0-0.533 0.239-0.533 0.533v0 4.8c0 0.884 0.716 1.6 1.6 1.6v0h18.133c0.884 0 1.6-0.716 1.6-1.6v0-0.533c0.884 0 1.6-0.716 1.6-1.6v0-3.2c0-0.884-0.716-1.6-1.6-1.6v0-4.267c0.884 0 1.6-0.716 1.6-1.6v0-3.2c0-0.884-0.716-1.6-1.6-1.6v0-0.533c0-0.884-0.716-1.6-1.6-1.6v0h-18.133c-0.884 0-1.6 0.716-1.6 1.6v0 10.667c0 0.295 0.239 0.533 0.533 0.533s0.533-0.239 0.533-0.533v0-10.667c0-0.295 0.239-0.533 0.533-0.533v0h18.133c0.295 0 0.533 0.239 0.533 0.533v0 0.533c-0.884 0-1.6 0.716-1.6 1.6v0 3.2c0 0.884 0.716 1.6 1.6 1.6v0 4.267c-0.884 0-1.6 0.716-1.6 1.6v0 3.2c0 0.884 0.716 1.6 1.6 1.6v0 0.533c0 0.295-0.239 0.533-0.533 0.533v0h-18.133c-0.295 0-0.533-0.239-0.533-0.533v0-4.8c0-0.295-0.239-0.533-0.533-0.533v0zM25.067 10.667v-3.2c0-0.295 0.239-0.533 0.533-0.533v0h1.067c0.295 0 0.533 0.239 0.533 0.533v0 3.2c0 0.295-0.239 0.533-0.533 0.533v0h-1.067c-0.295 0-0.533-0.239-0.533-0.533v0zM25.067 21.333v-3.2c0-0.295 0.239-0.533 0.533-0.533v0h1.067c0.295 0 0.533 0.239 0.533 0.533v0 3.2c0 0.295-0.239 0.533-0.533 0.533v0h-1.067c-0.295 0-0.533-0.239-0.533-0.533v0z"></path>
<path d="M10.087 16.849c0.987 2.339 3.262 3.951 5.913 3.951 3.535 0 6.4-2.865 6.4-6.4s-2.865-6.4-6.4-6.4c-2.651 0-4.926 1.612-5.897 3.909l-0.016 0.042c-0.31 0.723-0.491 1.565-0.491 2.449s0.181 1.726 0.507 2.491l-0.016-0.041zM13.476 9.702l0.194 0.468c0.080 0.2 0.272 0.34 0.497 0.34 0.295 0 0.533-0.239 0.533-0.533 0-0.078-0.017-0.152-0.047-0.218l0.001 0.003-0.194-0.468c0.46-0.145 0.989-0.229 1.538-0.229s1.078 0.084 1.576 0.239l-0.037-0.010-0.194 0.468c-0.029 0.063-0.045 0.137-0.045 0.215 0 0.295 0.239 0.533 0.533 0.533 0.225 0 0.417-0.139 0.496-0.336l0.001-0.004 0.194-0.469c0.929 0.503 1.672 1.246 2.161 2.148l0.014 0.028-0.468 0.194c-0.2 0.080-0.34 0.272-0.34 0.497 0 0.295 0.239 0.533 0.533 0.533 0.078 0 0.152-0.017 0.218-0.047l-0.003 0.001 0.468-0.194c0.145 0.46 0.229 0.989 0.229 1.538s-0.084 1.078-0.239 1.576l0.010-0.037-0.468-0.194c-0.063-0.029-0.137-0.045-0.215-0.045-0.295 0-0.533 0.239-0.533 0.533 0 0.225 0.139 0.417 0.336 0.496l0.004 0.001 0.469 0.194c-0.503 0.929-1.246 1.672-2.148 2.161l-0.028 0.014-0.194-0.468c-0.080-0.2-0.272-0.34-0.497-0.34-0.295 0-0.533 0.239-0.533 0.533 0 0.078 0.017 0.152 0.047 0.218l-0.001-0.003 0.194 0.468c-0.46 0.145-0.989 0.229-1.538 0.229s-1.078-0.084-1.576-0.239l0.037 0.010 0.194-0.468c0.029-0.063 0.045-0.137 0.045-0.215 0-0.295-0.239-0.533-0.533-0.533-0.225 0-0.417 0.139-0.496 0.336l-0.001 0.004-0.194 0.469c-0.929-0.503-1.672-1.246-2.161-2.148l-0.014-0.028 0.468-0.194c0.2-0.080 0.34-0.272 0.34-0.497 0-0.295-0.239-0.533-0.533-0.533-0.078 0-0.152 0.017-0.218 0.047l0.003-0.001-0.468 0.194c-0.145-0.46-0.229-0.989-0.229-1.538s0.084-1.078 0.239-1.576l-0.010 0.037 0.468 0.194c0.063 0.029 0.137 0.045 0.215 0.045 0.295 0 0.533-0.239 0.533-0.533 0-0.225-0.139-0.417-0.336-0.496l-0.004-0.001-0.469-0.194c0.503-0.93 1.246-1.673 2.148-2.162l0.028-0.014z"></path>
<path d="M16.004 17.6c1.765-0.003 3.195-1.434 3.195-3.2 0-1.767-1.433-3.2-3.2-3.2-0.002 0-0.004 0-0.005 0h0c-1.765 0.003-3.195 1.434-3.195 3.2 0 1.767 1.433 3.2 3.2 3.2 0.002 0 0.004 0 0.005 0h-0zM15.183 12.427c0.24-0.102 0.52-0.161 0.814-0.161 1.178 0 2.133 0.955 2.133 2.133s-0.955 2.133-2.133 2.133c-0.883 0-1.641-0.537-1.965-1.302l-0.005-0.014c-0.104-0.242-0.165-0.524-0.165-0.821 0-0.884 0.54-1.643 1.307-1.964l0.014-0.005zM10.667 5.867h-2.667c-0.295 0-0.533 0.239-0.533 0.533v0 2.667c0 0.295 0.239 0.533 0.533 0.533s0.533-0.239 0.533-0.533v0-2.133h2.133c0.295 0 0.533-0.239 0.533-0.533s-0.239-0.533-0.533-0.533v0z"></path>
</symbol>
<symbol id="settings" viewBox="0 0 32 32">
<title>settings</title>
<path d="M5.628 24.747c-0.448 0-0.879 0.112-1.261 0.322-2.013-2.58-3.117-5.785-3.117-9.069 0-8.133 6.617-14.75 14.75-14.75 0.989 0 1.977 0.098 2.938 0.292 0.338 0.068 0.668-0.15 0.736-0.489s-0.15-0.668-0.489-0.737c-1.042-0.21-2.113-0.317-3.185-0.317-4.274 0-8.292 1.664-11.314 4.686s-4.686 7.040-4.686 11.314c0 3.595 1.221 7.103 3.443 9.916-0.286 0.427-0.44 0.93-0.44 1.456 0 0.701 0.273 1.36 0.769 1.856s1.155 0.769 1.856 0.769 1.36-0.273 1.856-0.769c0.496-0.496 0.769-1.155 0.769-1.856s-0.273-1.36-0.769-1.856c-0.496-0.496-1.155-0.769-1.856-0.769zM6.6 28.344c-0.26 0.26-0.605 0.403-0.972 0.403s-0.712-0.143-0.972-0.403-0.403-0.605-0.403-0.972c0-0.367 0.143-0.713 0.403-0.972s0.605-0.403 0.972-0.403 0.712 0.143 0.972 0.403c0.249 0.247 0.403 0.59 0.403 0.969 0 0.001 0 0.003 0 0.004v-0c0 0.367-0.143 0.712-0.403 0.972zM28.556 6.083c0.679-1.019 0.57-2.413-0.328-3.312-0.496-0.496-1.155-0.769-1.856-0.769s-1.36 0.273-1.856 0.769c-0.496 0.496-0.769 1.155-0.769 1.856s0.273 1.36 0.769 1.856 1.155 0.769 1.856 0.769c0.448 0 0.879-0.112 1.261-0.322 2.013 2.58 3.117 5.785 3.117 9.069 0 8.133-6.617 14.75-14.75 14.75-0.979 0-1.958-0.096-2.909-0.287-0.338-0.068-0.668 0.152-0.736 0.49s0.152 0.668 0.49 0.736c0.948 0.198 2.037 0.311 3.152 0.311 0.001 0 0.002 0 0.003 0h-0c4.274 0 8.292-1.664 11.314-4.686s4.686-7.040 4.686-11.314c0-3.595-1.221-7.104-3.444-9.916zM25.4 5.601c-0.249-0.247-0.403-0.59-0.403-0.969 0-0.001 0-0.003 0-0.004v0c0-0.367 0.143-0.712 0.403-0.972s0.605-0.403 0.972-0.403 0.713 0.143 0.972 0.403c0.536 0.536 0.536 1.408 0 1.945-0.248 0.249-0.59 0.403-0.969 0.403-0.001 0-0.002 0-0.004 0h0c-0.001 0-0.002 0-0.004 0-0.378 0-0.721-0.154-0.968-0.403l-0-0z"></path>
<path d="M13.421 26.75c0 0.345 0.28 0.625 0.625 0.625h3.908c0.345 0 0.625-0.28 0.625-0.625v-1.212c0.892-0.243 1.671-0.576 2.392-0.997l-0.046 0.025 0.855 0.855c0.113 0.113 0.269 0.183 0.442 0.183s0.329-0.070 0.442-0.183v0l2.762-2.764c0.244-0.244 0.244-0.64 0-0.884l-0.855-0.855c0.397-0.674 0.729-1.454 0.956-2.277l0.016-0.069h1.207c0.345 0 0.625-0.28 0.625-0.625v-3.908c0-0.345-0.28-0.625-0.625-0.625h-1.207c-0.243-0.892-0.575-1.671-0.997-2.392l0.025 0.046 0.85-0.85c0.113-0.113 0.183-0.27 0.183-0.442v0c-0-0.173-0.070-0.329-0.183-0.442v0l-2.764-2.762c-0.244-0.244-0.64-0.244-0.884 0l-0.849 0.849c-0.674-0.397-1.454-0.729-2.277-0.956l-0.069-0.016v-1.2c0-0.345-0.28-0.625-0.625-0.625h-3.908c-0.345 0-0.625 0.28-0.625 0.625v1.201c-0.892 0.243-1.671 0.575-2.392 0.997l0.046-0.025-0.849-0.849c-0.244-0.244-0.64-0.244-0.884-0l-2.764 2.762c-0.113 0.113-0.183 0.269-0.183 0.442v0c0 0.166 0.066 0.325 0.183 0.442l0.85 0.85c-0.397 0.674-0.729 1.454-0.956 2.277l-0.016 0.069h-1.205c-0.345 0-0.625 0.28-0.625 0.625l-0.002 3.908c-0 0.166 0.066 0.325 0.183 0.442s0.276 0.183 0.442 0.183h1.207c0.244 0.892 0.576 1.671 0.997 2.392l-0.025-0.046-0.854 0.855c-0.244 0.244-0.244 0.64 0 0.884l2.762 2.764c0.113 0.113 0.269 0.183 0.442 0.183h0c0.173-0 0.329-0.070 0.442-0.183l0.855-0.855c0.674 0.396 1.454 0.729 2.277 0.956l0.069 0.016zM11.32 23.252c-0.096-0.063-0.213-0.1-0.339-0.1-0.173 0-0.329 0.070-0.442 0.183l-0.761 0.761-1.879-1.88 0.76-0.761c0.113-0.113 0.183-0.269 0.183-0.442 0-0.126-0.037-0.243-0.102-0.342l0.001 0.002c-0.567-0.877-0.965-1.838-1.184-2.857-0.063-0.284-0.312-0.494-0.611-0.494h-1.074l0.002-2.658h1.072c0 0 0 0 0 0 0.299 0 0.548-0.21 0.61-0.49l0.001-0.004c0.219-1.019 0.617-1.98 1.184-2.857 0.063-0.096 0.1-0.213 0.1-0.339 0-0.173-0.070-0.329-0.183-0.442l-0.755-0.756 1.88-1.879 0.755 0.755c0.113 0.113 0.269 0.183 0.442 0.183 0.126 0 0.243-0.037 0.342-0.101l-0.002 0.001c0.877-0.567 1.838-0.965 2.857-1.184 0.284-0.063 0.494-0.312 0.494-0.611v-1.067h2.658v1.067c0 0.295 0.206 0.549 0.494 0.611 1.082 0.237 2.038 0.646 2.89 1.204l-0.033-0.020c0.096 0.063 0.213 0.1 0.339 0.1 0.173 0 0.329-0.070 0.442-0.183v0l0.755-0.755 1.88 1.879-0.755 0.755c-0.113 0.113-0.183 0.269-0.183 0.442 0 0.126 0.037 0.243 0.102 0.342l-0.001-0.002c0.537 0.818 0.947 1.775 1.173 2.8l0.011 0.057c0.063 0.284 0.312 0.494 0.611 0.494 0 0 0 0 0 0h1.074v2.658h-1.074c-0.299 0-0.548 0.209-0.61 0.489l-0.001 0.004c-0.236 1.082-0.646 2.039-1.204 2.889l0.020-0.033c-0.063 0.096-0.1 0.213-0.1 0.339 0 0.173 0.070 0.329 0.183 0.442l0.76 0.76-1.879 1.88-0.761-0.761c-0.113-0.113-0.269-0.183-0.442-0.183-0.126 0-0.243 0.037-0.342 0.102l0.002-0.001c-0.818 0.537-1.775 0.947-2.8 1.173l-0.057 0.011c-0.284 0.063-0.494 0.312-0.494 0.611 0 0 0 0 0 0v0 1.078h-2.658v-1.078c0-0.294-0.206-0.549-0.494-0.611-1.019-0.219-1.98-0.617-2.857-1.184z"></path>
<path d="M21.164 16c0-2.848-2.317-5.164-5.164-5.164s-5.164 2.317-5.164 5.164 2.317 5.164 5.164 5.164 5.164-2.317 5.164-5.164zM12.086 16c0-2.158 1.756-3.914 3.914-3.914s3.914 1.756 3.914 3.914-1.756 3.914-3.914 3.914-3.914-1.756-3.914-3.914zM21.755 2.364c0.165 0 0.326-0.067 0.442-0.183 0.113-0.114 0.182-0.27 0.183-0.442v-0c0-0.164-0.067-0.325-0.183-0.442-0.113-0.113-0.269-0.183-0.442-0.183h-0c-0.172 0-0.328 0.070-0.442 0.183l0-0c-0.113 0.113-0.183 0.269-0.183 0.442v0c0 0.165 0.067 0.326 0.183 0.443 0.113 0.113 0.269 0.183 0.442 0.183h0zM10.273 29.648c-0.172 0.001-0.329 0.070-0.442 0.183l0-0c-0.113 0.113-0.182 0.269-0.183 0.442v0c0 0.165 0.067 0.326 0.183 0.442s0.277 0.183 0.442 0.183 0.326-0.067 0.442-0.183c0.116-0.116 0.183-0.278 0.183-0.442s-0.067-0.326-0.183-0.442c-0.113-0.113-0.269-0.183-0.442-0.183h-0z"></path>
</symbol>
<symbol id="shuffle" viewBox="0 0 32 32">
<title>shuffle</title>
<path d="M12.234 22.389c-0.407-0.305-0.977-0.224-1.283 0.183-1.527 2.023-3.855 3.183-6.387 3.183h-2.525c-0.509 0-0.916 0.407-0.916 0.916s0.407 0.916 0.916 0.916h2.532c1.568 0 3.068-0.36 4.452-1.066 1.323-0.672 2.498-1.656 3.394-2.851 0.299-0.4 0.224-0.977-0.183-1.283zM14.82 9.507c0.17 0.129 0.367 0.19 0.563 0.19 0.271 0 0.543-0.122 0.726-0.353 1.527-1.968 3.828-3.095 6.312-3.095h5.328l-2.844 2.844c-0.36 0.36-0.36 0.937 0 1.296 0.176 0.176 0.414 0.271 0.645 0.271s0.468-0.088 0.645-0.271l4.412-4.412c0.36-0.36 0.36-0.937 0-1.296l-4.412-4.412c-0.36-0.36-0.937-0.36-1.296 0s-0.36 0.937 0 1.296l2.844 2.844h-5.328c-3.054 0-5.884 1.385-7.765 3.808-0.299 0.407-0.231 0.977 0.17 1.29z"></path>
<path d="M26.202 21.616c-0.36-0.36-0.937-0.36-1.296 0s-0.36 0.937 0 1.296l2.844 2.844h-5.328c-4.405 0-7.989-3.584-7.989-7.989v-3.529c0-5.416-4.405-9.821-9.821-9.821h-2.532c-0.509 0-0.916 0.407-0.916 0.916s0.407 0.916 0.916 0.916h2.532c4.405 0 7.989 3.584 7.989 7.989v3.529c0 5.416 4.405 9.821 9.821 9.821h5.328l-2.844 2.844c-0.36 0.36-0.36 0.937 0 1.296 0.176 0.176 0.414 0.271 0.645 0.271s0.468-0.088 0.645-0.271l4.412-4.412c0.36-0.36 0.36-0.937 0-1.296l-4.405-4.405z"></path>
</symbol>
<symbol id="telephone" viewBox="0 0 32 32">
<title>telephone</title>
<path d="M25.29 19.823c-0.655-0.682-1.445-1.047-2.283-1.047-0.831 0-1.628 0.358-2.31 1.040l-2.134 2.127c-0.176-0.095-0.351-0.182-0.52-0.27-0.243-0.122-0.473-0.236-0.669-0.358-1.999-1.27-3.816-2.924-5.558-5.065-0.844-1.067-1.412-1.965-1.824-2.877 0.554-0.507 1.067-1.033 1.567-1.54 0.189-0.189 0.378-0.385 0.567-0.574 1.418-1.418 1.418-3.255 0-4.674l-1.844-1.844c-0.209-0.209-0.425-0.425-0.628-0.642-0.405-0.419-0.831-0.851-1.27-1.256-0.655-0.648-1.439-0.993-2.263-0.993s-1.621 0.344-2.296 0.993l-0.014 0.014-2.296 2.317c-0.865 0.865-1.358 1.918-1.466 3.141-0.162 1.972 0.419 3.809 0.865 5.011 1.094 2.951 2.729 5.687 5.167 8.618 2.958 3.532 6.517 6.322 10.583 8.287 1.553 0.736 3.627 1.607 5.943 1.756 0.142 0.007 0.29 0.014 0.425 0.014 1.56 0 2.87-0.561 3.897-1.675 0.007-0.014 0.020-0.020 0.027-0.034 0.351-0.425 0.756-0.81 1.182-1.222 0.29-0.277 0.588-0.567 0.878-0.871 0.669-0.696 1.020-1.506 1.020-2.337 0-0.837-0.358-1.641-1.040-2.317l-3.708-3.721zM27.708 26.935c-0.007 0-0.007 0.007 0 0-0.263 0.284-0.534 0.54-0.824 0.824-0.439 0.419-0.885 0.858-1.303 1.351-0.682 0.729-1.486 1.074-2.539 1.074-0.101 0-0.209 0-0.311-0.007-2.006-0.128-3.87-0.912-5.268-1.58-3.823-1.851-7.179-4.478-9.969-7.807-2.303-2.776-3.843-5.342-4.863-8.098-0.628-1.682-0.858-2.992-0.756-4.228 0.068-0.79 0.371-1.445 0.932-2.006l2.303-2.303c0.331-0.311 0.682-0.48 1.027-0.48 0.425 0 0.77 0.257 0.986 0.473l0.020 0.020c0.412 0.385 0.804 0.783 1.216 1.209 0.209 0.216 0.425 0.432 0.642 0.655l1.844 1.844c0.716 0.716 0.716 1.378 0 2.094-0.196 0.196-0.385 0.392-0.581 0.581-0.567 0.581-1.108 1.121-1.695 1.648-0.014 0.014-0.027 0.020-0.034 0.034-0.581 0.581-0.473 1.148-0.351 1.533l0.020 0.061c0.48 1.162 1.155 2.256 2.181 3.559l0.007 0.007c1.864 2.296 3.829 4.086 5.997 5.457 0.277 0.176 0.561 0.317 0.831 0.453 0.243 0.122 0.473 0.236 0.669 0.358 0.027 0.014 0.054 0.034 0.081 0.047 0.23 0.115 0.446 0.169 0.669 0.169 0.561 0 0.912-0.351 1.027-0.466l2.31-2.31c0.23-0.23 0.594-0.507 1.020-0.507 0.419 0 0.763 0.263 0.973 0.493l3.735 3.735c0.696 0.689 0.696 1.398 0.007 2.114zM17.294 7.612c1.77 0.297 3.377 1.135 4.66 2.418s2.114 2.891 2.418 4.66c0.074 0.446 0.459 0.756 0.898 0.756 0.054 0 0.101-0.007 0.155-0.014 0.5-0.081 0.831-0.554 0.75-1.054-0.365-2.141-1.378-4.093-2.924-5.639s-3.498-2.56-5.639-2.924c-0.5-0.081-0.966 0.25-1.054 0.743s0.236 0.973 0.736 1.054zM31.963 14.116c-0.601-3.525-2.263-6.734-4.815-9.287s-5.761-4.214-9.287-4.815c-0.493-0.088-0.959 0.25-1.047 0.743-0.081 0.5 0.25 0.966 0.75 1.054 3.147 0.534 6.018 2.026 8.3 4.302 2.283 2.283 3.769 5.153 4.302 8.3 0.074 0.446 0.459 0.756 0.898 0.756 0.054 0 0.101-0.007 0.155-0.014 0.493-0.074 0.831-0.547 0.743-1.040z"></path>
</symbol>
<symbol id="worldwide" viewBox="0 0 32 32">
<title>worldwide</title>
<path d="M25.593 20.668c0.019-0.032 0.037-0.069 0.051-0.108l0.001-0.004c0.639-1.366 0.997-2.889 0.997-4.494s-0.358-3.128-0.997-4.494c-0.015-0.043-0.033-0.080-0.054-0.115l0.002 0.003c-1.72-3.568-5.374-6.036-9.593-6.036s-7.873 2.468-9.593 6.037c-0.019 0.032-0.037 0.068-0.050 0.107l-0.001 0.004c-0.639 1.366-0.997 2.889-0.997 4.495s0.358 3.128 0.997 4.495c0.014 0.039 0.031 0.076 0.052 0.111 1.72 3.568 5.374 6.036 9.593 6.036s7.873-2.468 9.593-6.036zM6.608 16.063c0-1.299 0.265-2.536 0.744-3.662h3.166c-0.328 1.202-0.501 2.447-0.501 3.662s0.173 2.46 0.501 3.662h-3.166c-0.479-1.126-0.744-2.364-0.744-3.662zM11.266 16.063c0-1.176 0.193-2.443 0.559-3.662h3.551v7.325h-3.551c-0.365-1.22-0.559-2.486-0.559-3.662zM25.392 16.063c0 1.298-0.265 2.536-0.744 3.662h-3.166c0.328-1.202 0.501-2.448 0.501-3.662s-0.173-2.46-0.501-3.662h3.166c0.479 1.126 0.744 2.364 0.744 3.662zM20.734 16.063c0 1.176-0.193 2.443-0.559 3.662h-3.55v-7.325h3.551c0.365 1.22 0.559 2.486 0.559 3.662zM16.625 25.051v-4.077h3.107c-0.705 1.706-1.761 3.208-3.107 4.077zM16.625 11.15v-4.077c1.346 0.868 2.403 2.371 3.107 4.077zM15.375 7.074v4.077h-3.107c0.705-1.706 1.761-3.208 3.107-4.077zM15.375 20.975v4.077c-1.346-0.869-2.403-2.371-3.107-4.077zM18.51 25.113c0.741-0.734 1.403-1.654 1.948-2.723 0.232-0.456 0.439-0.93 0.621-1.416h2.923c-1.229 1.995-3.183 3.498-5.492 4.139zM24.002 11.15h-2.923c-0.182-0.486-0.388-0.96-0.621-1.415-0.545-1.070-1.207-1.99-1.948-2.723 2.309 0.641 4.263 2.144 5.492 4.139zM13.49 7.011c-0.741 0.734-1.403 1.654-1.948 2.723-0.232 0.456-0.439 0.93-0.621 1.415h-2.923c1.229-1.995 3.183-3.498 5.492-4.139zM7.998 20.975h2.923c0.182 0.486 0.388 0.96 0.621 1.416 0.545 1.070 1.207 1.99 1.948 2.723-2.309-0.641-4.263-2.144-5.492-4.139z"></path>
<path d="M1.985 16.687c0.003 0 0.008 0 0.012 0 0.006 0 0.011-0 0.017-0 0.155-0.004 0.295-0.064 0.401-0.161l-0.001 0c0 0 0-0 0.001-0s0.001-0 0.001-0 0.001-0.001 0.001-0.001h0c0.012-0.011 0.023-0.022 0.035-0.034 0 0 0 0 0-0s0.001-0.001 0.001-0.001c0.002-0.002 0.005-0.005 0.007-0.007l1.7-1.863c0.233-0.255 0.215-0.65-0.041-0.883s-0.65-0.215-0.883 0.041l-0.5 0.549c0.734-5.575 4.951-10.218 10.564-11.368 0.338-0.069 0.556-0.399 0.487-0.738s-0.4-0.556-0.738-0.487c-3.252 0.666-6.213 2.451-8.338 5.026-1.744 2.114-2.854 4.684-3.212 7.385l-0.35-0.54c-0.188-0.29-0.575-0.373-0.864-0.185s-0.372 0.574-0.185 0.864l1.367 2.11c0.019 0.030 0.040 0.059 0.064 0.085l0.001 0.001c0.015 0.017 0.031 0.032 0.048 0.048 0 0 0 0 0.001 0.001 0.107 0.096 0.248 0.156 0.403 0.159h0.001zM2.895 18.762c-0.069-0.338-0.4-0.556-0.738-0.487s-0.556 0.4-0.487 0.738c0.494 2.414 1.608 4.684 3.22 6.564 0.115 0.134 0.285 0.218 0.474 0.218 0 0 0.001 0 0.001 0h-0c0.144 0 0.289-0.049 0.407-0.15 0.262-0.225 0.292-0.619 0.068-0.881-1.474-1.72-2.493-3.795-2.944-6.002zM15.375 2.078v0c0.005 0.172 0.079 0.326 0.196 0.436l0 0 0.002 0.002c0.002 0.002 0.004 0.004 0.006 0.006l1.863 1.7c0.255 0.233 0.65 0.215 0.883-0.041s0.215-0.65-0.040-0.883l-0.549-0.501c1.661 0.217 3.273 0.744 4.737 1.555 0.087 0.049 0.192 0.078 0.303 0.078 0.234 0 0.438-0.129 0.545-0.319l0.002-0.003c0.167-0.302 0.058-0.682-0.244-0.85-1.595-0.884-3.351-1.459-5.16-1.698l0.539-0.349c0.29-0.188 0.372-0.575 0.185-0.865s-0.575-0.372-0.864-0.185l-2.109 1.367c-0.033 0.020-0.063 0.043-0.091 0.069 0 0-0 0-0 0-0.013 0.012-0.025 0.024-0.037 0.037l-0 0c-0 0-0 0-0 0l-0.001 0.001c-0.102 0.111-0.164 0.259-0.164 0.421 0 0.007 0 0.013 0 0.020l-0-0.001zM29.105 13.363c0.061 0.296 0.321 0.499 0.612 0.499 0.041 0 0.084-0.004 0.126-0.013 0.338-0.069 0.556-0.4 0.487-0.738-0.495-2.414-1.608-4.684-3.22-6.564-0.225-0.262-0.619-0.292-0.881-0.068s-0.293 0.619-0.068 0.881c1.474 1.72 2.493 3.795 2.945 6.002zM31.899 17.841l-1.369-2.113c-0.006-0.010-0.012-0.019-0.019-0.028 0-0 0-0-0-0-0.038-0.053-0.082-0.098-0.132-0.136l-0.002-0.001c-0.098-0.074-0.221-0.12-0.354-0.124l-0.001-0h-0.001c-0.005-0-0.012-0-0.018-0s-0.012 0-0.019 0l0.001-0h-0.001c-0.179 0.005-0.338 0.085-0.448 0.209l-0.001 0.001-1.696 1.859c-0.233 0.255-0.214 0.65 0.041 0.883s0.65 0.215 0.883-0.041l0.5-0.549c-0.734 5.575-4.951 10.218-10.564 11.368-0.338 0.069-0.556 0.4-0.487 0.738 0.060 0.287 0.311 0.499 0.612 0.5h0c0.041 0 0.084-0.004 0.126-0.013 3.252-0.666 6.213-2.451 8.338-5.026 1.744-2.114 2.854-4.684 3.212-7.386l0.35 0.54c0.188 0.29 0.575 0.373 0.864 0.185s0.373-0.575 0.185-0.864zM16.625 30.042c-0.006-0.174-0.083-0.329-0.203-0.439l-0-0-1.864-1.701c-0.255-0.232-0.65-0.214-0.883 0.041s-0.214 0.65 0.041 0.883l0.549 0.501c-1.661-0.217-3.273-0.744-4.737-1.555-0.302-0.167-0.682-0.058-0.85 0.244s-0.058 0.682 0.244 0.85c1.595 0.884 3.351 1.459 5.16 1.698l-0.539 0.349c-0.29 0.188-0.372 0.574-0.185 0.864 0.113 0.173 0.305 0.285 0.524 0.285 0 0 0.001 0 0.001 0h-0c0.117 0 0.234-0.032 0.339-0.1l2.107-1.365c0.176-0.11 0.292-0.301 0.296-0.52v-0.002c0-0.011 0-0.021-0-0.032v-0.001zM7.153 26.292c-0.345 0-0.625 0.281-0.625 0.625s0.281 0.625 0.625 0.625c0.344 0 0.625-0.281 0.625-0.625s-0.28-0.625-0.625-0.625zM24.847 5.833c0.344 0 0.625-0.281 0.625-0.625s-0.281-0.625-0.625-0.625-0.625 0.281-0.625 0.625 0.281 0.625 0.625 0.625z"></path>
</symbol>
</defs>
</svg>
