<svg height="511pt" viewBox="0 0 512 511" width="511pt" xmlns="http://www.w3.org/2000/svg"><g fill-rule="evenodd"><path d="M409.488 330.195a9.74 9.74 0 0 0 .836-1.793c10.227-21.855 15.953-46.222 15.953-71.902 0-25.684-5.726-50.05-15.953-71.91a9.826 9.826 0 0 0-.836-1.79C381.965 125.71 323.508 86.224 256 86.224s-125.969 39.488-153.492 96.586a9.916 9.916 0 0 0-.828 1.773c-10.227 21.86-15.957 46.23-15.957 71.918 0 25.684 5.726 50.055 15.957 71.914.218.621.496 1.215.828 1.777 27.523 57.094 85.984 96.582 153.492 96.582s125.965-39.488 153.488-96.578zM105.723 256.5c0-20.777 4.238-40.582 11.898-58.598h50.649c-5.247 19.23-8.016 39.16-8.016 58.598 0 19.434 2.77 39.363 8.016 58.594H117.62c-7.66-18.012-11.898-37.82-11.898-58.594zm74.53 0c0-18.816 3.09-39.086 8.938-58.598H246v117.192h-56.809c-5.847-19.512-8.937-39.781-8.937-58.594zm226.024 0c0 20.773-4.242 40.582-11.898 58.594H343.73c5.247-19.23 8.016-39.16 8.016-58.594 0-19.438-2.77-39.367-8.016-58.598h50.649c7.656 18.016 11.898 37.82 11.898 58.598zm-74.53 0c0 18.813-3.095 39.082-8.942 58.594H266V197.902h56.809c5.847 19.512 8.937 39.782 8.937 58.598zM266 400.32v-65.226h49.715c-11.278 27.297-28.18 51.328-49.715 65.226zm0-222.418v-65.226c21.535 13.894 38.441 37.93 49.715 65.226zm-20-65.226v65.226h-49.715c11.274-27.297 28.18-51.332 49.715-65.226zm0 222.418v65.226c-21.535-13.898-38.441-37.93-49.715-65.226zm50.164 66.222c11.852-11.738 22.445-26.46 31.168-43.574 3.715-7.293 7.023-14.875 9.934-22.648h46.765c-19.664 31.922-50.926 55.965-87.867 66.222zm87.867-223.414h-46.765c-2.91-7.773-6.215-15.355-9.934-22.648-8.727-17.113-19.316-31.836-31.168-43.574 36.941 10.258 68.203 34.3 87.867 66.222zM215.836 111.68c-11.852 11.738-22.445 26.46-31.168 43.574-3.719 7.293-7.027 14.875-9.934 22.648h-46.77c19.669-31.922 50.93-55.964 87.872-66.222zm-87.871 223.414h46.77c2.906 7.773 6.214 15.355 9.933 22.648 8.723 17.113 19.316 31.836 31.168 43.574-36.941-10.257-68.203-34.3-87.871-66.222zm0 0"/><path d="M31.758 266.496c.05.004.133.004.199.004.09 0 .184-.004.273-.004a9.941 9.941 0 0 0 6.41-2.562c.005 0 .005-.004.008-.008.004-.004.008-.008.012-.008.008-.008.012-.012.016-.02h.004c.191-.175.375-.355.554-.546 0 0 .004 0 .004-.004.008-.004.012-.012.016-.016.039-.039.074-.078.11-.117l27.195-29.813c3.722-4.078 3.433-10.402-.649-14.125-4.078-3.722-10.406-3.433-14.125.649l-8.008 8.777c11.743-89.207 79.215-163.492 169.028-181.89 5.41-1.106 8.898-6.391 7.789-11.801-1.11-5.41-6.395-8.899-11.805-7.793-52.031 10.66-99.406 39.222-133.402 80.422-27.91 33.824-45.66 74.941-51.399 118.164l-5.593-8.637c-3.004-4.633-9.196-5.961-13.829-2.953-4.636 3-5.96 9.191-2.957 13.828l21.864 33.754c.304.484.648.941 1.027 1.367l.008.008.008.008c.238.265.492.52.761.761.004.008.008.008.012.012a9.963 9.963 0 0 0 6.453 2.543zm0 0M46.316 299.691c-1.109-5.41-6.398-8.898-11.804-7.789-5.41 1.11-8.899 6.395-7.79 11.805 7.91 38.629 25.727 74.945 51.52 105.031a9.985 9.985 0 0 0 7.598 3.489c2.305 0 4.617-.79 6.504-2.407 4.191-3.593 4.676-9.91 1.082-14.101C69.84 368.207 53.546 335 46.316 299.69zm0 0M246.004 32.75v.004a9.973 9.973 0 0 0 3.14 6.98l.016.016.02.02c.035.03.066.062.101.093l29.813 27.196c4.082 3.722 10.406 3.433 14.125-.649 3.722-4.078 3.433-10.402-.645-14.125l-8.789-8.02c26.578 3.477 52.371 11.907 75.79 24.883a9.997 9.997 0 0 0 13.594-3.898c2.675-4.832.929-10.918-3.9-13.594-25.519-14.14-53.613-23.347-82.562-27.176l8.621-5.585c4.637-3.004 5.957-9.196 2.957-13.832-3.004-4.633-9.195-5.958-13.832-2.954l-33.75 21.864c-.52.324-1.008.695-1.46 1.109 0 .004-.005.004-.005.008a9.277 9.277 0 0 0-.598.594c-.003.004-.003.004-.003.007l-.012.012a9.967 9.967 0 0 0-2.621 7.04zm0 0M465.684 213.305c.972 4.73 5.136 7.992 9.789 7.992.664 0 1.34-.063 2.015-.203 5.41-1.11 8.899-6.395 7.79-11.805-7.915-38.621-25.727-74.937-51.52-105.027-3.598-4.196-9.91-4.68-14.102-1.086-4.195 3.594-4.68 9.906-1.086 14.101 23.59 27.52 39.883 60.723 47.114 96.028zm0 0M510.39 284.953l-21.902-33.808c-.097-.153-.199-.305-.304-.454 0-.004 0-.004-.004-.007a9.896 9.896 0 0 0-2.14-2.188 9.962 9.962 0 0 0-5.685-1.992h-.023a6.942 6.942 0 0 0-.57 0h-.016a9.961 9.961 0 0 0-7.176 3.351l-27.132 29.739c-3.72 4.078-3.43 10.402.648 14.125 4.082 3.722 10.406 3.433 14.129-.649l8.008-8.777c-11.746 89.207-79.22 163.492-169.028 181.89-5.414 1.11-8.898 6.395-7.793 11.805a10.007 10.007 0 0 0 9.79 7.996c.663 0 1.34-.066 2.015-.207 52.031-10.66 99.406-39.218 133.402-80.418 27.91-33.828 45.664-74.941 51.399-118.168l5.597 8.637c3 4.637 9.192 5.961 13.829 2.957 4.636-3.004 5.96-9.195 2.957-13.832zm0 0M265.992 480.176a9.966 9.966 0 0 0-3.254-7.024l-29.832-27.215c-4.082-3.718-10.406-3.43-14.129.649-3.722 4.082-3.43 10.406.649 14.129l8.789 8.015c-26.578-3.476-52.371-11.906-75.793-24.882-4.832-2.676-10.918-.93-13.594 3.902-2.676 4.828-.93 10.914 3.902 13.594 25.524 14.14 53.614 23.347 82.563 27.172l-8.625 5.59c-4.637 3-5.957 9.19-2.957 13.828a9.985 9.985 0 0 0 8.402 4.562c1.864 0 3.75-.52 5.43-1.605l33.715-21.844a9.996 9.996 0 0 0 4.738-8.332v-.004-.012c.004-.172 0-.34-.004-.508v-.015zm0 0M114.453 420.172c-5.512 0-10.004 4.492-10.004 10s4.492 10 10.004 10c5.508 0 9.996-4.492 9.996-10s-4.488-10-9.996-10zm0 0M397.547 92.824c5.508 0 10-4.492 10-10s-4.492-10-10-10-10 4.492-10 10 4.492 10 10 10zm0 0"/></g></svg>