<svg aria-hidden="true" style="position:absolute;width:0;height:0" xmlns="http://www.w3.org/2000/svg" overflow="hidden"><defs><symbol id="enter" viewBox="0 0 32 32"><path d="M21.217 17.043H1.043a1.043 1.043 0 010-2.086h20.174a1.043 1.043 0 010 2.086z"/><path d="M15.652 22.609a1.043 1.043 0 01-.738-1.782l4.828-4.828-4.828-4.828a1.043 1.043 0 111.476-1.476l5.565 5.565a1.043 1.043 0 010 1.476l-5.565 5.565c-.188.19-.448.308-.736.308h-.002z"/><path d="M16.696 31.304c-6.332 0-11.922-3.809-14.244-9.706a1.044 1.044 0 111.942-.762c2.005 5.091 6.834 8.381 12.302 8.381 7.288 0 13.217-5.93 13.217-13.217S23.983 2.783 16.696 2.783c-5.468 0-10.297 3.29-12.302 8.381a1.042 1.042 0 11-1.942-.762C4.774 4.505 10.364.696 16.696.696 25.134.696 32 7.562 32 16s-6.866 15.304-15.304 15.304z"/></symbol><symbol id="cart" viewBox="0 0 32 32"><path d="M9.606 21.07h17.632a3.637 3.637 0 003.63-3.63V9.943c0-.013 0-.026-.007-.039 0-.013-.007-.033-.007-.046s-.007-.026-.007-.039c-.007-.013-.007-.026-.013-.046-.007-.013-.007-.026-.013-.039s-.007-.026-.013-.039a.298.298 0 01-.02-.046c-.007-.013-.013-.026-.02-.033l-.02-.039-.02-.033c-.007-.013-.02-.026-.026-.039a.125.125 0 00-.026-.033c-.007-.013-.02-.02-.026-.033s-.02-.02-.026-.033-.02-.02-.026-.026l-.033-.033c-.013-.007-.02-.02-.033-.026s-.026-.02-.039-.026l-.033-.02c-.013-.007-.026-.013-.039-.026l-.118-.059c-.013-.007-.026-.007-.039-.013s-.033-.013-.046-.013-.026-.007-.033-.007c-.02-.007-.033-.007-.053-.007-.007 0-.013-.007-.026-.007L7.758 6.059V2.942c0-.033 0-.066-.007-.092 0-.007 0-.013-.007-.026 0-.02-.007-.039-.007-.059-.007-.02-.007-.033-.013-.053 0-.013-.007-.02-.007-.033l-.02-.059c0-.007-.007-.02-.007-.026a.216.216 0 00-.026-.053c-.007-.007-.007-.02-.013-.026-.007-.013-.013-.026-.026-.039l-.02-.033-.02-.033c-.007-.013-.02-.026-.026-.039l-.079-.079a.267.267 0 00-.046-.039c-.007-.007-.02-.013-.026-.02-.013-.013-.026-.02-.039-.033-.02-.013-.039-.026-.053-.033-.007-.007-.013-.007-.02-.013l-.085-.039L2.364.076C1.91-.115 1.391.096 1.2.55s.02.973.474 1.164l4.301 1.815v19.454a3.634 3.634 0 003.163 3.597 3.59 3.59 0 00-.513 1.841c0 1.98 1.611 3.584 3.584 3.584s3.584-1.611 3.584-3.584c0-.658-.178-1.282-.493-1.809h7.984a3.532 3.532 0 00-.493 1.809c0 1.98 1.611 3.584 3.584 3.584s3.584-1.611 3.584-3.584-1.611-3.584-3.584-3.584H9.605a1.857 1.857 0 01-1.855-1.855v-2.407c.539.316 1.177.5 1.855.5zm4.42 7.339c0 1-.816 1.809-1.809 1.809s-1.809-.816-1.809-1.809.816-1.809 1.809-1.809 1.809.809 1.809 1.809zm14.166 0c0 1-.816 1.809-1.809 1.809s-1.809-.816-1.809-1.809.816-1.809 1.809-1.809 1.809.809 1.809 1.809zm-.954-9.115H9.606a1.857 1.857 0 01-1.855-1.855V7.844l21.341 2.94v6.649a1.858 1.858 0 01-1.855 1.861z"/></symbol><symbol id="clock" viewBox="0 0 32 32"><path d="M27.312 4.688a1.201 1.201 0 00-1.691 0l-3.64 3.64a1.201 1.201 0 000 1.691c.464.464 1.22.464 1.691 0l2.765-2.765c4.482 5.338 4.217 13.341-.809 18.367-5.305 5.305-13.938 5.305-19.242 0s-5.305-13.938 0-19.242a13.573 13.573 0 0112.426-3.693 1.188 1.188 0 001.399-.928 1.194 1.194 0 00-.922-1.412A15.965 15.965 0 004.681 4.689C1.664 7.713 0 11.731 0 16.001s1.664 8.288 4.688 11.312c3.024 3.024 7.035 4.688 11.312 4.688s8.288-1.664 11.312-4.688C30.336 24.289 32 20.278 32 16.001s-1.664-8.288-4.688-11.312z"/><path d="M15.993 4.867c-.656 0-1.194.537-1.194 1.194v9.442l-4.761 4.761a1.201 1.201 0 000 1.691c.232.232.537.351.842.351s.61-.119.842-.351l5.112-5.112c.027-.027.053-.06.08-.086.013-.013.02-.027.027-.04.013-.02.027-.033.04-.053.013-.013.02-.033.033-.053.007-.013.02-.033.027-.053s.02-.033.027-.053c.007-.02.02-.033.027-.053l.02-.053.02-.06c.007-.02.007-.033.013-.053s.013-.04.013-.06c.007-.02.007-.04.007-.066 0-.02.007-.033.007-.053.007-.04.007-.08.007-.119V6.062a1.187 1.187 0 00-1.187-1.194z"/></symbol><symbol id="compass" viewBox="0 0 32 32"><path d="M5.187 18.351l1.972-1.901a.623.623 0 000-.9l-1.972-1.901c.912-4.207 4.255-7.55 8.463-8.462l1.9 1.972a.62.62 0 00.899 0l1.9-1.972c1.292.279 2.511.784 3.63 1.504a.625.625 0 00.677-1.051 12.194 12.194 0 00-4.405-1.748.623.623 0 00-.564.181l-1.688 1.751-1.688-1.751a.623.623 0 00-.568-.18l.004-.001c-2.451.453-4.683 1.629-6.455 3.401s-2.948 4.004-3.401 6.455a.623.623 0 00.181.564L5.823 16l-1.752 1.688a.624.624 0 00-.18.567l-.001-.004a12.199 12.199 0 001.719 4.359.624.624 0 00.526.289h.001a.624.624 0 00.526-.961 10.961 10.961 0 01-1.478-3.588zm22.74-.663L26.176 16l1.751-1.688a.623.623 0 00.18-.567l.001.004a12.2 12.2 0 00-1.748-4.405.625.625 0 00-1.051.677 10.96 10.96 0 011.505 3.629l-1.972 1.901a.62.62 0 000 .899l1.972 1.901c-.912 4.207-4.255 7.55-8.462 8.462l-1.9-1.972a.623.623 0 00-.9 0l-1.9 1.972a10.949 10.949 0 01-3.671-1.531.624.624 0 10-.681 1.047 12.212 12.212 0 004.451 1.778.623.623 0 00.564-.181l1.688-1.751 1.688 1.751a.623.623 0 00.568.18l-.004.001c2.451-.453 4.683-1.629 6.455-3.401s2.948-4.004 3.401-6.455a.627.627 0 00-.181-.564z"/><path d="M16 0C7.178 0 0 7.178 0 16s7.178 16 16 16 16-7.178 16-16S24.822 0 16 0zm0 30.75C7.867 30.75 1.25 24.133 1.25 16S7.867 1.25 16 1.25 30.75 7.867 30.75 16 24.133 30.75 16 30.75z"/><path d="M21.381 9.785l-7.634 3.669-.021.012c-.011.006-.023.012-.033.019l-.032.022.002-.001a.278.278 0 00-.031.023l.001-.001-.029.024a.51.51 0 00-.052.052l-.001.001-.023.028-.023.031-.02.03c-.007.01-.013.023-.019.034-.004.007-.008.013-.011.021l-3.67 7.634a.623.623 0 00.121.713.623.623 0 00.716.12l-.004.002 7.634-3.669.021-.012c.011-.006.023-.012.033-.019l.031-.02.03-.022.029-.024a.615.615 0 00.027-.025l.026-.027a.513.513 0 00.045-.057l.001-.002a.34.34 0 00.019-.028l.001-.002.019-.034.012-.021 3.669-7.634a.623.623 0 00-.121-.713.623.623 0 00-.716-.12l.004-.002zm-7.182 5.298l2.718 2.717-5.233 2.516zm3.601 1.834L15.083 14.2l5.233-2.516zM7.699 23.603c-.344 0-.625.281-.625.625s.281.625.625.625.625-.281.625-.625-.281-.625-.625-.625zM24.264 8.36c.344 0 .625-.281.625-.625s-.281-.625-.625-.625-.625.281-.625.625.281.625.625.625z"/></symbol><symbol id="like" viewBox="0 0 32 32"><path d="M29.415 4.545c-1.676-1.676-3.894-2.591-6.262-2.591s-4.593.923-6.268 2.598l-.875.875-.889-.889a8.828 8.828 0 00-6.275-2.605 8.8 8.8 0 00-6.255 2.591A8.77 8.77 0 000 10.792c0 2.368.929 4.586 2.605 6.262l12.74 12.74c.176.176.414.271.644.271s.468-.088.644-.265L29.4 17.08a8.805 8.805 0 002.598-6.268 8.76 8.76 0 00-2.585-6.268zm-1.302 11.241L15.99 27.861 3.894 15.765c-1.33-1.33-2.062-3.094-2.062-4.973s.726-3.643 2.056-4.966A6.975 6.975 0 018.847 3.77a7 7 0 014.979 2.062l1.533 1.533c.36.36.936.36 1.296 0l1.52-1.52c1.33-1.33 3.1-2.062 4.973-2.062s3.636.733 4.966 2.056a6.978 6.978 0 012.056 4.973 6.95 6.95 0 01-2.056 4.973z"/></symbol><symbol id="mail" viewBox="0 0 32 32"><path d="M28.094 3.824H3.914A3.916 3.916 0 00.001 7.737v16.526a3.916 3.916 0 003.913 3.913h24.174a3.916 3.916 0 003.913-3.913V7.743a3.912 3.912 0 00-3.906-3.92zm2.125 20.439a2.127 2.127 0 01-2.125 2.125H3.914a2.127 2.127 0 01-2.125-2.125V7.743c0-1.172.953-2.125 2.125-2.125h24.174c1.172 0 2.125.953 2.125 2.125v16.52h.007z"/><path d="M20.181 15.795l7.826-7.018a.899.899 0 00.066-1.265.899.899 0 00-1.265-.066l-10.792 9.687-2.106-1.88c-.007-.007-.013-.013-.013-.02a1.362 1.362 0 00-.146-.126L5.183 7.44c-.371-.331-.934-.298-1.265.073s-.298.934.073 1.265l7.919 7.078-7.886 7.383a.898.898 0 001.225 1.312l8.005-7.489 2.172 1.94a.894.894 0 001.192-.007l2.231-2 7.959 7.561a.896.896 0 001.265-.033.898.898 0 00-.033-1.265l-7.859-7.462z"/></symbol><symbol id="safe" viewBox="0 0 32 32"><path d="M3.822 28.747v1.12c0 1.178.955 2.133 2.133 2.133h5.244a2.133 2.133 0 002.133-2.133V28.8h5.333v1.067c0 1.178.955 2.133 2.133 2.133h5.244a2.133 2.133 0 002.133-2.133v-1.111a2.67 2.67 0 002.222-2.621V2.668A2.67 2.67 0 0027.731.001H4.355a2.67 2.67 0 00-2.667 2.667v2.134a.533.533 0 101.066 0V2.669a1.6 1.6 0 011.6-1.6H27.73a1.6 1.6 0 011.6 1.6v23.467a1.6 1.6 0 01-1.6 1.6H4.354a1.6 1.6 0 01-1.6-1.6V7.469a.533.533 0 10-1.066 0v18.667a2.672 2.672 0 002.114 2.61l.017.003zm23.289.053v1.067c0 .589-.478 1.067-1.067 1.067H20.8a1.067 1.067 0 01-1.067-1.067V28.8zm-14.844 0v1.067c0 .589-.478 1.067-1.067 1.067H5.956a1.067 1.067 0 01-1.067-1.067V28.8z"/><path d="M5.867 18.133a.533.533 0 00-.533.533v4.8a1.6 1.6 0 001.6 1.6h18.133a1.6 1.6 0 001.6-1.6v-.533a1.6 1.6 0 001.6-1.6v-3.2a1.6 1.6 0 00-1.6-1.6v-4.267a1.6 1.6 0 001.6-1.6v-3.2a1.6 1.6 0 00-1.6-1.6v-.533a1.6 1.6 0 00-1.6-1.6H6.934a1.6 1.6 0 00-1.6 1.6V16A.533.533 0 106.4 16V5.333c0-.295.239-.533.533-.533h18.133c.295 0 .533.239.533.533v.533a1.6 1.6 0 00-1.6 1.6v3.2a1.6 1.6 0 001.6 1.6v4.267a1.6 1.6 0 00-1.6 1.6v3.2a1.6 1.6 0 001.6 1.6v.533a.533.533 0 01-.533.533H6.933a.533.533 0 01-.533-.533v-4.8a.533.533 0 00-.533-.533zm19.2-7.466v-3.2c0-.295.239-.533.533-.533h1.067c.295 0 .533.239.533.533v3.2a.533.533 0 01-.533.533H25.6a.533.533 0 01-.533-.533zm0 10.666v-3.2c0-.295.239-.533.533-.533h1.067c.295 0 .533.239.533.533v3.2a.533.533 0 01-.533.533H25.6a.533.533 0 01-.533-.533z"/><path d="M10.087 16.849C11.074 19.188 13.349 20.8 16 20.8a6.4 6.4 0 006.4-6.4 6.4 6.4 0 00-12.297-2.491l-.016.042c-.31.723-.491 1.565-.491 2.449s.181 1.726.507 2.491l-.016-.041zm3.389-7.147l.194.468a.533.533 0 10.983-.411l.001.003-.194-.468a5.293 5.293 0 013.114.01l-.037-.01-.194.468a.533.533 0 10.984.412l.001-.004.194-.469a5.328 5.328 0 012.161 2.148l.014.028-.468.194a.533.533 0 10.411.983l-.003.001.468-.194a5.293 5.293 0 01-.01 3.114l.01-.037-.468-.194a.533.533 0 10-.412.984l.004.001.469.194a5.328 5.328 0 01-2.148 2.161l-.028.014-.194-.468a.533.533 0 10-.983.411l-.001-.003.194.468a5.293 5.293 0 01-3.114-.01l.037.01.194-.468a.533.533 0 10-.984-.412l-.001.004-.194.469a5.328 5.328 0 01-2.161-2.148l-.014-.028.468-.194a.533.533 0 10-.411-.983l.003-.001-.468.194a5.293 5.293 0 01.01-3.114l-.01.037.468.194a.533.533 0 10.412-.984l-.004-.001-.469-.194a5.324 5.324 0 012.148-2.162l.028-.014z"/><path d="M16.004 17.6a3.2 3.2 0 00-.005-6.4h-.005a3.2 3.2 0 00.005 6.4h.005zm-.821-5.173a2.133 2.133 0 11-1.151 2.803l-.005-.014a2.13 2.13 0 011.142-2.785l.014-.005zm-4.516-6.56H8a.533.533 0 00-.533.533v2.667a.533.533 0 101.066 0V6.934h2.133a.533.533 0 100-1.066z"/></symbol><symbol id="settings" viewBox="0 0 32 32"><path d="M5.628 24.747a2.61 2.61 0 00-1.261.322A14.774 14.774 0 011.25 16C1.25 7.867 7.867 1.25 16 1.25c.989 0 1.977.098 2.938.292a.624.624 0 10.247-1.226A16.152 16.152 0 0016-.001c-4.274 0-8.292 1.664-11.314 4.686S0 11.725 0 15.999c0 3.595 1.221 7.103 3.443 9.916-.286.427-.44.93-.44 1.456 0 .701.273 1.36.769 1.856s1.155.769 1.856.769 1.36-.273 1.856-.769.769-1.155.769-1.856-.273-1.36-.769-1.856a2.607 2.607 0 00-1.856-.769zm.972 3.597c-.26.26-.605.403-.972.403s-.712-.143-.972-.403-.403-.605-.403-.972.143-.713.403-.972a1.37 1.37 0 011.944 0c.249.247.403.59.403.969v.004c0 .367-.143.712-.403.972zM28.556 6.083a2.632 2.632 0 00-.328-3.312c-.496-.496-1.155-.769-1.856-.769s-1.36.273-1.856.769-.769 1.155-.769 1.856.273 1.36.769 1.856 1.155.769 1.856.769a2.61 2.61 0 001.261-.322 14.774 14.774 0 013.117 9.069c0 8.133-6.617 14.75-14.75 14.75-.979 0-1.958-.096-2.909-.287a.626.626 0 00-.246 1.226c.948.198 2.037.311 3.152.311H16c4.274 0 8.292-1.664 11.314-4.686S32 20.273 32 15.999c0-3.595-1.221-7.104-3.444-9.916zM25.4 5.601a1.36 1.36 0 01-.403-.969v-.004c0-.367.143-.712.403-.972s.605-.403.972-.403.713.143.972.403a1.377 1.377 0 01-.969 2.348h-.008a1.36 1.36 0 01-.968-.403z"/><path d="M13.421 26.75c0 .345.28.625.625.625h3.908c.345 0 .625-.28.625-.625v-1.212a9.766 9.766 0 002.392-.997l-.046.025.855.855a.623.623 0 00.884 0l2.762-2.764a.625.625 0 000-.884l-.855-.855a9.516 9.516 0 00.956-2.277l.016-.069h1.207c.345 0 .625-.28.625-.625v-3.908a.625.625 0 00-.625-.625h-1.207a9.727 9.727 0 00-.997-2.392l.025.046.85-.85a.623.623 0 000-.884l-2.764-2.762a.625.625 0 00-.884 0l-.849.849a9.516 9.516 0 00-2.277-.956l-.069-.016v-1.2a.625.625 0 00-.625-.625h-3.908a.625.625 0 00-.625.625V6.45a9.727 9.727 0 00-2.392.997l.046-.025-.849-.849a.625.625 0 00-.884 0L6.577 9.335a.625.625 0 000 .884l.85.85a9.516 9.516 0 00-.956 2.277l-.016.069H5.25a.625.625 0 00-.625.625l-.002 3.908a.625.625 0 00.625.625h1.207c.244.892.576 1.671.997 2.392l-.025-.046-.854.855a.625.625 0 000 .884l2.762 2.764a.623.623 0 00.884 0l.855-.855a9.557 9.557 0 002.277.956l.069.016zm-2.101-3.498a.623.623 0 00-.781.083l-.761.761-1.879-1.88.76-.761a.623.623 0 00.081-.784l.001.002a8.553 8.553 0 01-1.184-2.857.627.627 0 00-.611-.494H5.872l.002-2.658h1.072c.299 0 .548-.21.61-.49l.001-.004a8.553 8.553 0 011.184-2.857.623.623 0 00-.083-.781l-.755-.756 1.88-1.879.755.755a.623.623 0 00.784.082l-.002.001a8.553 8.553 0 012.857-1.184.627.627 0 00.494-.611V5.873h2.658V6.94c0 .295.206.549.494.611a8.56 8.56 0 012.89 1.204l-.033-.02a.623.623 0 00.781-.083l.755-.755 1.88 1.879-.755.755a.623.623 0 00-.081.784l-.001-.002a8.44 8.44 0 011.173 2.8l.011.057a.627.627 0 00.611.494h1.074v2.658h-1.074a.624.624 0 00-.61.489l-.001.004a8.518 8.518 0 01-1.204 2.889l.02-.033a.623.623 0 00.083.781l.76.76-1.879 1.88-.761-.761a.623.623 0 00-.784-.081l.002-.001a8.44 8.44 0 01-2.8 1.173l-.057.011a.627.627 0 00-.494.611v1.078h-2.658v-1.078a.626.626 0 00-.494-.611 8.553 8.553 0 01-2.857-1.184z"/><path d="M21.164 16c0-2.848-2.317-5.164-5.164-5.164S10.836 13.153 10.836 16s2.317 5.164 5.164 5.164 5.164-2.317 5.164-5.164zm-9.078 0c0-2.158 1.756-3.914 3.914-3.914s3.914 1.756 3.914 3.914-1.756 3.914-3.914 3.914-3.914-1.756-3.914-3.914zm9.669-13.636a.63.63 0 00.442-.183.63.63 0 00.183-.442.623.623 0 00-.625-.625.623.623 0 00-.625.625.623.623 0 00.625.626zM10.273 29.648a.627.627 0 00-.625.625.63.63 0 00.183.442.63.63 0 00.884 0c.116-.116.183-.278.183-.442s-.067-.326-.183-.442a.623.623 0 00-.442-.183z"/></symbol><symbol id="shuffle" viewBox="0 0 32 32"><path d="M12.234 22.389a.913.913 0 00-1.283.183 7.938 7.938 0 01-6.387 3.183H2.039c-.509 0-.916.407-.916.916s.407.916.916.916h2.532c1.568 0 3.068-.36 4.452-1.066a9.827 9.827 0 003.394-2.851.92.92 0 00-.183-1.283zM14.82 9.507a.926.926 0 001.289-.163 7.938 7.938 0 016.312-3.095h5.328l-2.844 2.844a.913.913 0 000 1.296c.176.176.414.271.645.271s.468-.088.645-.271l4.412-4.412a.913.913 0 000-1.296L26.195.269c-.36-.36-.937-.36-1.296 0s-.36.937 0 1.296l2.844 2.844h-5.328a9.766 9.766 0 00-7.765 3.808.931.931 0 00.17 1.29z"/><path d="M26.202 21.616c-.36-.36-.937-.36-1.296 0s-.36.937 0 1.296l2.844 2.844h-5.328c-4.405 0-7.989-3.584-7.989-7.989v-3.529c0-5.416-4.405-9.821-9.821-9.821H2.08c-.509 0-.916.407-.916.916s.407.916.916.916h2.532c4.405 0 7.989 3.584 7.989 7.989v3.529c0 5.416 4.405 9.821 9.821 9.821h5.328l-2.844 2.844a.913.913 0 000 1.296c.176.176.414.271.645.271s.468-.088.645-.271l4.412-4.412a.913.913 0 000-1.296l-4.405-4.405z"/></symbol><symbol id="telephone" viewBox="0 0 32 32"><path d="M25.29 19.823c-.655-.682-1.445-1.047-2.283-1.047-.831 0-1.628.358-2.31 1.04l-2.134 2.127c-.176-.095-.351-.182-.52-.27-.243-.122-.473-.236-.669-.358-1.999-1.27-3.816-2.924-5.558-5.065-.844-1.067-1.412-1.965-1.824-2.877.554-.507 1.067-1.033 1.567-1.54.189-.189.378-.385.567-.574 1.418-1.418 1.418-3.255 0-4.674l-1.844-1.844c-.209-.209-.425-.425-.628-.642a31.411 31.411 0 00-1.27-1.256c-.655-.648-1.439-.993-2.263-.993s-1.621.344-2.296.993l-.014.014-2.296 2.317A4.94 4.94 0 00.049 8.315c-.162 1.972.419 3.809.865 5.011 1.094 2.951 2.729 5.687 5.167 8.618 2.958 3.532 6.517 6.322 10.583 8.287 1.553.736 3.627 1.607 5.943 1.756.142.007.29.014.425.014 1.56 0 2.87-.561 3.897-1.675.007-.014.02-.02.027-.034.351-.425.756-.81 1.182-1.222.29-.277.588-.567.878-.871.669-.696 1.02-1.506 1.02-2.337 0-.837-.358-1.641-1.04-2.317l-3.708-3.721zm2.418 7.112c-.007 0-.007.007 0 0-.263.284-.534.54-.824.824-.439.419-.885.858-1.303 1.351-.682.729-1.486 1.074-2.539 1.074-.101 0-.209 0-.311-.007-2.006-.128-3.87-.912-5.268-1.58-3.823-1.851-7.179-4.478-9.969-7.807-2.303-2.776-3.843-5.342-4.863-8.098-.628-1.682-.858-2.992-.756-4.228.068-.79.371-1.445.932-2.006L5.11 4.155c.331-.311.682-.48 1.027-.48.425 0 .77.257.986.473l.02.02c.412.385.804.783 1.216 1.209.209.216.425.432.642.655l1.844 1.844c.716.716.716 1.378 0 2.094-.196.196-.385.392-.581.581a35.386 35.386 0 01-1.695 1.648c-.014.014-.027.02-.034.034-.581.581-.473 1.148-.351 1.533l.02.061c.48 1.162 1.155 2.256 2.181 3.559l.007.007c1.864 2.296 3.829 4.086 5.997 5.457.277.176.561.317.831.453.243.122.473.236.669.358.027.014.054.034.081.047.23.115.446.169.669.169.561 0 .912-.351 1.027-.466l2.31-2.31c.23-.23.594-.507 1.02-.507.419 0 .763.263.973.493l3.735 3.735c.696.689.696 1.398.007 2.114zM17.294 7.612c1.77.297 3.377 1.135 4.66 2.418s2.114 2.891 2.418 4.66a.905.905 0 00.898.756c.054 0 .101-.007.155-.014a.913.913 0 00.75-1.054c-.365-2.141-1.378-4.093-2.924-5.639s-3.498-2.56-5.639-2.924c-.5-.081-.966.25-1.054.743s.236.973.736 1.054zm14.669 6.504c-.601-3.525-2.263-6.734-4.815-9.287S21.387.615 17.861.014a.909.909 0 00-1.047.743c-.081.5.25.966.75 1.054 3.147.534 6.018 2.026 8.3 4.302a15.296 15.296 0 014.302 8.3.905.905 0 00.898.756c.054 0 .101-.007.155-.014a.895.895 0 00.743-1.04z"/></symbol><symbol id="worldwide" viewBox="0 0 32 32"><path d="M25.593 20.668a.634.634 0 00.051-.108l.001-.004c.639-1.366.997-2.889.997-4.494s-.358-3.128-.997-4.494a.61.61 0 00-.054-.115l.002.003C23.873 7.888 20.219 5.42 16 5.42s-7.873 2.468-9.593 6.037a.555.555 0 00-.05.107l-.001.004c-.639 1.366-.997 2.889-.997 4.495s.358 3.128.997 4.495a.625.625 0 00.052.111c1.72 3.568 5.374 6.036 9.593 6.036s7.873-2.468 9.593-6.036zM6.608 16.063a9.33 9.33 0 01.744-3.662h3.166c-.328 1.202-.501 2.447-.501 3.662s.173 2.46.501 3.662H7.352a9.334 9.334 0 01-.744-3.662zm4.658 0c0-1.176.193-2.443.559-3.662h3.551v7.325h-3.551a12.976 12.976 0 01-.559-3.662zm14.126 0a9.334 9.334 0 01-.744 3.662h-3.166c.328-1.202.501-2.448.501-3.662s-.173-2.46-.501-3.662h3.166a9.334 9.334 0 01.744 3.662zm-4.658 0c0 1.176-.193 2.443-.559 3.662h-3.55V12.4h3.551c.365 1.22.559 2.486.559 3.662zm-4.109 8.988v-4.077h3.107c-.705 1.706-1.761 3.208-3.107 4.077zm0-13.901V7.073c1.346.868 2.403 2.371 3.107 4.077zm-1.25-4.076v4.077h-3.107c.705-1.706 1.761-3.208 3.107-4.077zm0 13.901v4.077c-1.346-.869-2.403-2.371-3.107-4.077zm3.135 4.138c.741-.734 1.403-1.654 1.948-2.723.232-.456.439-.93.621-1.416h2.923a9.43 9.43 0 01-5.492 4.139zm5.492-13.963h-2.923c-.182-.486-.388-.96-.621-1.415-.545-1.07-1.207-1.99-1.948-2.723a9.43 9.43 0 015.492 4.139zM13.49 7.011c-.741.734-1.403 1.654-1.948 2.723-.232.456-.439.93-.621 1.415H7.998A9.43 9.43 0 0113.49 7.01zM7.998 20.975h2.923c.182.486.388.96.621 1.416.545 1.07 1.207 1.99 1.948 2.723a9.43 9.43 0 01-5.492-4.139z"/><path d="M1.985 16.687h.029a.615.615 0 00.401-.161h-.001.002l.001-.001.035-.034.001-.001.007-.007 1.7-1.863a.624.624 0 10-.924-.842l-.5.549C3.47 8.752 7.687 4.109 13.3 2.959a.625.625 0 10-.251-1.225A14.668 14.668 0 004.711 6.76a14.646 14.646 0 00-3.212 7.385l-.35-.54a.624.624 0 10-1.049.679l1.367 2.11a.59.59 0 00.064.085l.001.001c.015.017.031.032.048.048l.001.001a.62.62 0 00.403.159h.001zm.91 2.075a.626.626 0 00-1.225.251 14.614 14.614 0 003.22 6.564.623.623 0 00.474.218h.001a.624.624 0 00.475-1.031 13.362 13.362 0 01-2.944-6.002zm12.48-16.684a.62.62 0 00.196.436l.002.002.006.006 1.863 1.7a.625.625 0 10.843-.924l-.549-.501c1.661.217 3.273.744 4.737 1.555a.625.625 0 00.848-.241l.002-.003a.626.626 0 00-.244-.85 14.602 14.602 0 00-5.16-1.698l.539-.349a.626.626 0 00-.679-1.05L15.67 1.528a.646.646 0 00-.128.106l-.001.001a.62.62 0 00-.164.421v.02-.001zm13.73 11.285a.625.625 0 101.225-.252 14.625 14.625 0 00-3.22-6.564.625.625 0 00-.949.813 13.374 13.374 0 012.945 6.002zm2.794 4.478l-1.369-2.113a.632.632 0 00-.151-.164l-.002-.001a.618.618 0 00-.354-.124h-.039.001-.001a.62.62 0 00-.448.209l-.001.001-1.696 1.859a.625.625 0 10.924.842l.5-.549c-.734 5.575-4.951 10.218-10.564 11.368a.626.626 0 00.125 1.238.606.606 0 00.126-.013 14.668 14.668 0 008.338-5.026 14.645 14.645 0 003.212-7.386l.35.54a.624.624 0 101.049-.679zM16.625 30.042a.623.623 0 00-.203-.439l-1.864-1.701a.626.626 0 00-.842.924l.549.501a13.357 13.357 0 01-4.737-1.555.626.626 0 00-.606 1.094 14.602 14.602 0 005.16 1.698l-.539.349a.625.625 0 00.339 1.149h.001a.62.62 0 00.339-.1l2.107-1.365a.625.625 0 00.296-.52v-.035zm-9.472-3.75a.626.626 0 000 1.25.626.626 0 000-1.25zM24.847 5.833c.344 0 .625-.281.625-.625s-.281-.625-.625-.625-.625.281-.625.625.281.625.625.625z"/></symbol></defs></svg>